<svg xmlns="http://www.w3.org/2000/svg" viewBox="0 0 512 512" width="512" height="512">
  <defs>
    <linearGradient id="starGradient" x1="0%" y1="0%" x2="100%" y2="100%">
      <stop offset="0%" style="stop-color:#F4D03F;stop-opacity:1" />
      <stop offset="50%" style="stop-color:#F7DC6F;stop-opacity:1" />
      <stop offset="100%" style="stop-color:#F1C40F;stop-opacity:1" />
    </linearGradient>
    <linearGradient id="starShadow" x1="0%" y1="0%" x2="100%" y2="100%">
      <stop offset="0%" style="stop-color:#D4AC0D;stop-opacity:0.8" />
      <stop offset="100%" style="stop-color:#B7950B;stop-opacity:0.8" />
    </linearGradient>
  </defs>

  <!-- Shadow/Border -->
  <path d="M256 20
           L310.4 155.2
           L461.6 155.2
           L340.6 244.8
           L395 380
           L256 290.4
           L117 380
           L171.4 244.8
           L50.4 155.2
           L201.6 155.2 Z"
        fill="#6B6B6B"
        stroke="#4A4A4A"
        stroke-width="8"/>

  <!-- Main Star -->
  <path d="M256 30
           L305.2 158.4
           L448.8 158.4
           L335.8 241.6
           L385 370
           L256 286.8
           L127 370
           L176.2 241.6
           L63.2 158.4
           L206.8 158.4 Z"
        fill="url(#starGradient)"
        stroke="#D4AC0D"
        stroke-width="4"/>

  <!-- Highlight -->
  <path d="M256 30
           L305.2 158.4
           L448.8 158.4
           L335.8 241.6
           L385 370
           L256 286.8
           L256 30 Z"
        fill="url(#starShadow)"
        opacity="0.3"/>
</svg>